<?xml version="1.0" encoding="UTF-8"?>
<svg version="1.1" xmlns="http://www.w3.org/2000/svg" width="192" height="192">
<path d="M0 0 C63.36 0 126.72 0 192 0 C192 63.36 192 126.72 192 192 C128.64 192 65.28 192 0 192 C0 128.64 0 65.28 0 0 Z " fill="#FDF9F3" transform="translate(0,0)"/>
<path d="M0 0 C63.36 0 126.72 0 192 0 C192 63.36 192 126.72 192 192 C128.64 192 65.28 192 0 192 C0 128.64 0 65.28 0 0 Z M28.50390625 32.8125 C23.19570026 40.62517113 21.54529306 49.29812276 21.59594727 58.58959961 C21.58908401 59.49022629 21.58222076 60.39085297 21.57514954 61.31877136 C21.55701234 64.26346089 21.56070014 67.20761096 21.56640625 70.15234375 C21.56183831 72.21920441 21.55653092 74.28606356 21.55052185 76.35292053 C21.5416165 80.67243646 21.54398465 84.99176723 21.55395508 89.3112793 C21.56544363 94.8232419 21.54522145 100.33456373 21.51603794 105.84644222 C21.49761756 110.11121115 21.49797999 114.37582815 21.50367546 118.64062691 C21.50382795 120.67182883 21.49784415 122.70304153 21.48538399 124.73420525 C21.4138112 138.31195096 21.72963358 150.02813103 30.80078125 160.98828125 C38.46196657 167.99629269 47.40602274 170.15095135 57.43359375 170.14526367 C58.28297012 170.14862228 59.1323465 170.1519809 60.00746155 170.15544128 C62.81748925 170.16494366 65.62745723 170.16689456 68.4375 170.16796875 C70.39843775 170.17118366 72.35937525 170.17454791 74.3203125 170.17805481 C78.4360408 170.1840456 82.55174811 170.18589494 86.66748047 170.18530273 C91.91477491 170.18520153 97.16193275 170.19881016 102.40919495 170.21607494 C106.4638123 170.22725655 110.51839738 170.22922 114.57302856 170.22869301 C116.50571154 170.22986553 118.43839556 170.23424599 120.37106323 170.24202538 C141.43426048 170.77445672 141.43426048 170.77445672 160 162 C168.48827701 153.15281064 170.14437584 143.04108255 170.16113281 131.22583008 C170.16609772 130.37601562 170.17106262 129.52620117 170.17617798 128.65063477 C170.19070598 125.85692515 170.19758635 123.06327234 170.203125 120.26953125 C170.20595238 119.30903051 170.20877975 118.34852978 170.21169281 117.35892296 C170.22664852 112.2746796 170.23590048 107.19046434 170.24023438 102.10620117 C170.24570977 96.88247571 170.26972862 91.6590121 170.29820633 86.43536854 C170.31692826 82.39362359 170.3220434 78.35194049 170.32357025 74.31015587 C170.3265764 72.38583637 170.33453508 70.46151742 170.34775543 68.53724098 C170.62010883 47.80745454 170.62010883 47.80745454 161 30 C152.92644202 23.06677507 144.00186535 20.53907248 133.52392578 20.59594727 C132.62344513 20.58908401 131.72296448 20.58222076 130.79519653 20.57514954 C127.84507066 20.55698312 124.89548182 20.56070484 121.9453125 20.56640625 C119.8770226 20.56183928 117.80873421 20.55653218 115.740448 20.55052185 C111.41495584 20.54161042 107.08964849 20.54399111 102.76416016 20.55395508 C97.24432188 20.56543654 91.72512414 20.54523545 86.20536995 20.51603794 C81.93630985 20.49761588 77.66740152 20.49798046 73.39831161 20.50367546 C71.36431862 20.50382797 69.33031487 20.49784233 67.29636002 20.48538399 C52.80223075 20.40910798 38.51329211 20.68624664 28.50390625 32.8125 Z " fill="#F2EDE4" transform="translate(0,0)"/>
<path d="M0 0 C0.79205338 -0.0049649 1.58410675 -0.00992981 2.40016174 -0.01504517 C5.02744406 -0.02968175 7.65466598 -0.03647166 10.28198242 -0.04199219 C12.1056061 -0.04774291 13.92922976 -0.05350065 15.75285339 -0.05926514 C19.58035565 -0.06977973 23.40783688 -0.07561923 27.23535156 -0.07910156 C32.13818995 -0.08458379 37.04075026 -0.10860405 41.94350147 -0.13707352 C45.71218169 -0.15570522 49.48079505 -0.16090581 53.24951744 -0.16243744 C55.05681565 -0.16546387 56.86411269 -0.17349209 58.67136574 -0.18662262 C61.20169785 -0.2036925 63.73135229 -0.20180058 66.26171875 -0.1953125 C67.00736084 -0.20452728 67.75300293 -0.21374207 68.52124023 -0.22323608 C72.98197865 -0.18743702 75.80645054 0.37713557 79.32495117 3.16113281 C82.44099947 6.34042645 82.77242231 8.87921554 82.99755859 13.25878906 C83.06180023 14.50805176 83.12604187 15.75731445 83.19223022 17.04443359 C83.45885109 24.56109822 83.53240202 32.07782165 83.56323242 39.59863281 C83.56730795 40.44987732 83.57138348 41.30112183 83.5755825 42.17816162 C83.59623702 46.665484 83.61063822 51.15277749 83.62011719 55.64013672 C83.63127241 60.25788766 83.66583388 64.8751688 83.70528889 69.49275208 C83.73142047 73.06672049 83.73980483 76.64057458 83.74339867 80.21463013 C83.74825613 81.91784928 83.75984614 83.62106361 83.77843666 85.32418823 C83.80280518 87.69991266 83.80187051 90.074384 83.79492188 92.45019531 C83.80773193 93.14533737 83.82054199 93.84047943 83.83374023 94.5566864 C83.78096469 99.51770218 82.42856001 102.33933182 79.32495117 106.16113281 C76.1624932 107.7423618 72.7568515 107.33524923 69.28271484 107.35400391 C68.45164719 107.3621814 67.62057953 107.37035889 66.764328 107.37878418 C64.00719935 107.40364749 61.2501222 107.42015626 58.49291992 107.43457031 C57.55219446 107.43989399 56.611469 107.44521767 55.64223671 107.45070267 C50.66335489 107.47743789 45.68449819 107.49681189 40.70556641 107.51123047 C35.56041909 107.52788242 30.4159118 107.57266364 25.27100658 107.62360191 C21.31703446 107.65724144 17.36321489 107.66880426 13.40911293 107.67445755 C11.51246561 107.68117879 9.61582863 107.69642347 7.7193203 107.72034836 C5.0641384 107.75193372 2.41069118 107.75204703 -0.24462891 107.74462891 C-1.02767395 107.76103424 -1.81071899 107.77743958 -2.61749268 107.79434204 C-6.57107605 107.74914166 -8.43563974 107.34976823 -11.57695007 104.87466431 C-15.57546448 99.70327056 -15.97950171 96.05925212 -15.99731445 89.55639648 C-16.00724426 88.68923508 -16.01717407 87.82207367 -16.02740479 86.92863464 C-16.05659578 84.06209122 -16.07024286 81.19576915 -16.08129883 78.32910156 C-16.09280606 76.33376562 -16.10432148 74.33842972 -16.11584473 72.34309387 C-16.13684981 68.15930147 -16.14854484 63.97558575 -16.15551758 59.79174805 C-16.16648443 54.43819707 -16.21453737 49.08566417 -16.27146149 43.73243237 C-16.30876312 39.61022507 -16.31912795 35.48826184 -16.32218933 31.36590004 C-16.32823258 29.39274848 -16.34425698 27.41960072 -16.37055969 25.44661522 C-16.40478949 22.68164644 -16.40089857 19.91914916 -16.38793945 17.15405273 C-16.40636902 16.34393738 -16.42479858 15.53382202 -16.44378662 14.69915771 C-16.36363555 9.22218016 -14.91791569 6.44580856 -11.15779877 2.47388172 C-7.79566626 -0.50277379 -4.25372165 0.00632562 0 0 Z " fill="#F85E3C" transform="translate(60.675048828125,39.8388671875)"/>
<path d="M0 0 C3.9551424 1.66633118 7.00484131 4.31473925 10.1875 7.125 C10.73341797 7.57359375 11.27933594 8.0221875 11.84179688 8.484375 C16.23166589 12.37922781 16.63823086 15.21169369 17 21 C18.43691955 22.85801239 18.43691955 22.85801239 20 24 C20 24.66 20 25.32 20 26 C22.66250834 25.15602694 22.66250834 25.15602694 25 23 C25.24695089 20.95531947 25.24695089 20.95531947 25.0625 18.6875 C24.80715394 13.91330251 25.80593997 11.6983853 29 8 C32.91511524 4.23143988 36.4710099 1.3228498 41.9375 0.625 C45.97812446 1.11977034 47.42332823 1.81705251 50 5 C50.96888421 9.92024679 50.58089586 13.81586613 48.375 18.3125 C41.46057896 26.13671328 41.46057896 26.13671328 34.8125 26.5625 C33.55373047 26.56443359 33.55373047 26.56443359 32.26953125 26.56640625 C29.23547829 27.14606181 28.70063166 28.52960553 27 31 C27.46374023 31.46374023 27.92748047 31.92748047 28.40527344 32.40527344 C33.27018229 37.27018229 38.13509115 42.13509115 43 47 C43.74540039 47.68352539 44.49080078 48.36705078 45.25878906 49.07128906 C46.12068848 50.02600098 46.12068848 50.02600098 47 51 C46.75 53.75 46.75 53.75 46 56 C43.9375 56.9375 43.9375 56.9375 41 57 C35.41241628 53.07621292 31.28490608 46.75842408 27.11328125 41.453125 C25.20677678 39.24002923 23.40736519 37.63026988 21 36 C20.18208984 37.01707031 20.18208984 37.01707031 19.34765625 38.0546875 C17.34228705 40.52969017 15.32203681 42.99123281 13.28759766 45.44238281 C12.04033518 46.95120621 10.80702419 48.47152893 9.57421875 49.9921875 C8.80722656 50.90226562 8.04023437 51.81234375 7.25 52.75 C6.20585938 54.01070312 6.20585938 54.01070312 5.140625 55.296875 C3 57 3 57 0.296875 56.828125 C-2 56 -2 56 -3 55 C-3.44140625 52.83984375 -3.44140625 52.83984375 -3 50 C-1.24464936 47.57895986 0.88393319 45.60110716 3.0625 43.5625 C3.95134888 42.70362183 3.95134888 42.70362183 4.8581543 41.82739258 C8.77893822 38.06556661 12.78499248 34.43082008 17 31 C15.63841993 28.41296511 15.63841993 28.41296511 13 26 C10.87536622 25.68127761 10.87536622 25.68127761 8.5 25.5625 C2.67837839 24.72711035 -0.05062258 21.34797539 -3.6875 17.0625 C-4.22890625 16.42836182 -4.7703125 15.79422363 -5.328125 15.14086914 C-6.82421875 13.28515625 -6.82421875 13.28515625 -9 10 C-8.67 9.01 -8.34 8.02 -8 7 C-4.81580579 8.37154686 -3.02887404 9.86169983 -0.875 12.5625 C1.20903634 15.21025666 1.20903634 15.21025666 4 17 C2.33525481 13.76299547 0.6561908 11.58675951 -2.1875 9.375 C-3.115625 8.59125 -4.04375 7.8075 -5 7 C-5 6.01 -5 5.02 -5 4 C-1.33939179 4.58536753 0.54535164 6.083239 3.25 8.5625 C4.30960938 9.52349609 4.30960938 9.52349609 5.390625 10.50390625 C5.92171875 10.99761719 6.4528125 11.49132812 7 12 C4.50174717 8.78796065 1.9297008 5.82506863 -1 3 C-0.67 2.01 -0.34 1.02 0 0 Z " fill="#FEF4EE" transform="translate(77,68)"/>
<path d="M0 0 C0.79205338 -0.0049649 1.58410675 -0.00992981 2.40016174 -0.01504517 C5.02744406 -0.02968175 7.65466598 -0.03647166 10.28198242 -0.04199219 C12.1056061 -0.04774291 13.92922976 -0.05350065 15.75285339 -0.05926514 C19.58035565 -0.06977973 23.40783688 -0.07561923 27.23535156 -0.07910156 C32.13818995 -0.08458379 37.04075026 -0.10860405 41.94350147 -0.13707352 C45.71218169 -0.15570522 49.48079505 -0.16090581 53.24951744 -0.16243744 C55.05681565 -0.16546387 56.86411269 -0.17349209 58.67136574 -0.18662262 C61.20169785 -0.2036925 63.73135229 -0.20180058 66.26171875 -0.1953125 C67.00736084 -0.20452728 67.75300293 -0.21374207 68.52124023 -0.22323608 C74.02770983 -0.17904464 77.25336743 1.09404275 81.12573242 4.95800781 C82.72792307 7.901446 82.62099119 10.08257214 82.51245117 13.41113281 C82.4718457 15.02761719 82.4718457 15.02761719 82.43041992 16.67675781 C82.39561523 17.49660156 82.36081055 18.31644531 82.32495117 19.16113281 C81.82995117 18.17113281 81.82995117 18.17113281 81.32495117 17.16113281 C80.66495117 17.16113281 80.00495117 17.16113281 79.32495117 17.16113281 C78.86922201 15.17545573 78.41349284 13.18977865 77.95776367 11.20410156 C77.34487394 8.88370307 77.34487394 8.88370307 75.32495117 6.16113281 C72.89973623 5.57924016 72.89973623 5.57924016 70.19995117 5.47363281 C68.59120117 5.37050781 66.98245117 5.26738281 65.32495117 5.16113281 C65.32495117 8.46113281 65.32495117 11.76113281 65.32495117 15.16113281 C64.99495117 15.16113281 64.66495117 15.16113281 64.32495117 15.16113281 C64.32495117 11.86113281 64.32495117 8.56113281 64.32495117 5.16113281 C54.98887129 5.19914647 45.65324151 5.25844412 36.31748486 5.34503555 C31.9826371 5.38457094 27.64799431 5.41672942 23.31298828 5.43212891 C19.13061677 5.44725595 14.94880854 5.48163 10.76668739 5.52944183 C9.16992395 5.54429669 7.5730801 5.55217617 5.97624779 5.55301666 C3.7418527 5.55537593 1.50902764 5.58236711 -0.72509766 5.61523438 C-1.99750809 5.62411682 -3.26991852 5.63299927 -4.58088684 5.64215088 C-7.72102981 5.87715567 -7.72102981 5.87715567 -9.58714294 7.93788147 C-10.73776407 10.28929807 -11.04497933 11.68086326 -11.03149414 14.27905273 C-11.03443985 15.08882568 -11.03738556 15.89859863 -11.04042053 16.73291016 C-11.02812912 17.61027832 -11.01583771 18.48764648 -11.00317383 19.39160156 C-11.00179916 20.31900146 -11.0004245 21.24640137 -10.99900818 22.2019043 C-10.98992788 25.251116 -10.95837341 28.29959664 -10.92504883 31.34863281 C-10.91108214 33.45645706 -10.89782427 35.56428611 -10.88525391 37.67211914 C-10.84700191 43.09810619 -10.78556997 48.52355908 -10.71539307 53.94921875 C-10.6761205 57.07581446 -10.64328485 60.20241627 -10.61206055 63.32910156 C-10.56204018 68.10736172 -10.49360018 72.88498671 -10.40856934 77.66275024 C-10.37798917 79.44749222 -10.35167501 81.23231259 -10.32971191 83.0171814 C-10.29671429 85.49669663 -10.2445792 87.97505712 -10.18676758 90.45410156 C-10.18035751 91.18113281 -10.17394745 91.90816406 -10.16734314 92.65722656 C-10.08420432 95.47653654 -9.85441451 97.77969714 -8.64727783 100.34677124 C-5.65974143 103.09516975 -2.54202895 102.71134593 1.31298828 102.6628418 C2.53295753 102.67094627 2.53295753 102.67094627 3.77757263 102.67921448 C6.46951551 102.6917347 9.16039559 102.67518796 11.85229492 102.65722656 C13.72172604 102.65738149 15.59115748 102.65886942 17.46058655 102.66163635 C21.3806069 102.66302187 25.30026206 102.65043802 29.22021484 102.62768555 C34.2453783 102.59932007 39.26993388 102.60203088 44.29514217 102.61477566 C48.15647066 102.62173111 52.01765865 102.61394475 55.87896919 102.60151863 C57.73173038 102.59700145 59.58450665 102.59666966 61.43726921 102.60058403 C64.02766694 102.60349444 66.61722757 102.58699708 69.20751953 102.56518555 C69.97388733 102.56968719 70.74025513 102.57418884 71.52984619 102.5788269 C74.71200889 102.53430673 76.97321171 102.3551655 79.78541565 100.80384827 C81.763118 98.69359997 82.01862225 96.99467535 82.32495117 94.16113281 C82.65495117 94.16113281 82.98495117 94.16113281 83.32495117 94.16113281 C83.82836592 99.44698771 82.59405788 102.02667432 79.32495117 106.16113281 C76.1624932 107.7423618 72.7568515 107.33524923 69.28271484 107.35400391 C68.45164719 107.3621814 67.62057953 107.37035889 66.764328 107.37878418 C64.00719935 107.40364749 61.2501222 107.42015626 58.49291992 107.43457031 C57.55219446 107.43989399 56.611469 107.44521767 55.64223671 107.45070267 C50.66335489 107.47743789 45.68449819 107.49681189 40.70556641 107.51123047 C35.56041909 107.52788242 30.4159118 107.57266364 25.27100658 107.62360191 C21.31703446 107.65724144 17.36321489 107.66880426 13.40911293 107.67445755 C11.51246561 107.68117879 9.61582863 107.69642347 7.7193203 107.72034836 C5.0641384 107.75193372 2.41069118 107.75204703 -0.24462891 107.74462891 C-1.02767395 107.76103424 -1.81071899 107.77743958 -2.61749268 107.79434204 C-6.57107605 107.74914166 -8.43563974 107.34976823 -11.57695007 104.87466431 C-15.57546448 99.70327056 -15.97950171 96.05925212 -15.99731445 89.55639648 C-16.00724426 88.68923508 -16.01717407 87.82207367 -16.02740479 86.92863464 C-16.05659578 84.06209122 -16.07024286 81.19576915 -16.08129883 78.32910156 C-16.09280606 76.33376562 -16.10432148 74.33842972 -16.11584473 72.34309387 C-16.13684981 68.15930147 -16.14854484 63.97558575 -16.15551758 59.79174805 C-16.16648443 54.43819707 -16.21453737 49.08566417 -16.27146149 43.73243237 C-16.30876312 39.61022507 -16.31912795 35.48826184 -16.32218933 31.36590004 C-16.32823258 29.39274848 -16.34425698 27.41960072 -16.37055969 25.44661522 C-16.40478949 22.68164644 -16.40089857 19.91914916 -16.38793945 17.15405273 C-16.40636902 16.34393738 -16.42479858 15.53382202 -16.44378662 14.69915771 C-16.36363555 9.22218016 -14.91791569 6.44580856 -11.15779877 2.47388172 C-7.79566626 -0.50277379 -4.25372165 0.00632562 0 0 Z " fill="#CE3B2F" transform="translate(60.675048828125,39.8388671875)"/>
<path d="M0 0 C1.51223648 0.00666183 1.51223648 0.00666183 3.05502319 0.01345825 C4.19605499 0.01360931 5.33708679 0.01376038 6.51269531 0.01391602 C8.36741959 0.02939987 8.36741959 0.02939987 10.25961304 0.04519653 C12.15313004 0.04944138 12.15313004 0.04944138 14.0848999 0.05377197 C17.44201998 0.06308772 20.79886965 0.08106068 24.15591431 0.10317993 C27.58108176 0.12363353 31.00627713 0.13277264 34.43148804 0.14285278 C41.1529269 0.16494448 47.8742016 0.19949057 54.59555054 0.24050903 C54.59555054 3.87050903 54.59555054 7.50050903 54.59555054 11.24050903 C47.34589485 11.30827582 40.09641213 11.36331955 32.84650707 11.39594555 C29.48010176 11.41160414 26.11392431 11.43284524 22.74765015 11.46682739 C18.87787805 11.50312652 15.00843028 11.52021653 11.13851929 11.53347778 C9.32434761 11.55670357 9.32434761 11.55670357 7.473526 11.58039856 C6.35259048 11.58062515 5.23165497 11.58085175 4.07675171 11.58108521 C3.08857956 11.58774704 2.10040741 11.59440887 1.08229065 11.60127258 C-1.40444946 11.24050903 -1.40444946 11.24050903 -3.22749329 9.91062927 C-5.03081169 7.3516907 -4.72744292 5.27664755 -4.40444946 2.24050903 C-2.40444946 0.24050903 -2.40444946 0.24050903 0 0 Z " fill="#FEEBE0" transform="translate(55.404449462890625,44.759490966796875)"/>
<path d="M0 0 C0.28875 0.61875 0.5775 1.2375 0.875 1.875 C1.93720042 4.13325765 1.93720042 4.13325765 4 6 C6.46620164 6.33159285 6.46620164 6.33159285 9.36767578 6.31884766 C10.48868683 6.33871735 11.60969788 6.35858704 12.76467896 6.37905884 C13.97928802 6.39061005 15.19389709 6.40216125 16.4453125 6.4140625 C18.30553543 6.44311172 18.30553543 6.44311172 20.20333862 6.4727478 C23.50111779 6.5224881 26.79886139 6.56372477 30.09680176 6.60089111 C33.46177334 6.64089002 36.82657392 6.69200103 40.19140625 6.7421875 C46.79416107 6.83839787 53.39699011 6.92340383 60 7 C60 7.33 60 7.66 60 8 C42.18 8.33 24.36 8.66 6 9 C6.33 37.05 6.66 65.1 7 94 C3 93 3 93 1.28198242 91.41918945 C-0.48357026 88.0874695 -0.47928068 84.97796957 -0.51171875 81.29296875 C-0.53878151 80.12644524 -0.53878151 80.12644524 -0.56639099 78.93635559 C-0.6217223 76.35345093 -0.65517049 73.77078759 -0.6875 71.1875 C-0.7198235 69.38214848 -0.75287707 67.5768099 -0.78662109 65.77148438 C-1.0374196 51.18273563 -1.09871965 36.59065102 -1.125 22 C-1.12776947 20.95242523 -1.13053894 19.90485046 -1.13339233 18.82553101 C-1.13913409 15.86281637 -1.13744027 12.90021455 -1.1328125 9.9375 C-1.13478134 9.04464798 -1.13675018 8.15179596 -1.13877869 7.23188782 C-1.11539425 1.11539425 -1.11539425 1.11539425 0 0 Z " fill="#F04A28" transform="translate(50,49)"/>
<path d="M0 0 C0.33 0 0.66 0 1 0 C1.0093457 0.76143311 1.01869141 1.52286621 1.02832031 2.30737305 C1.08210937 5.7680662 1.16574184 9.22742018 1.25 12.6875 C1.26417969 13.88568359 1.27835938 15.08386719 1.29296875 16.31835938 C1.32519531 17.47529297 1.35742188 18.63222656 1.390625 19.82421875 C1.41157227 20.88729248 1.43251953 21.95036621 1.45410156 23.0456543 C2.1561458 26.84504485 3.19929568 28.3334536 6 31 C8.89683248 31.49416211 11.20705152 31.66543151 14.1015625 31.61523438 C14.91502136 31.62078339 15.72848022 31.6263324 16.56658936 31.63204956 C19.25332702 31.64385265 21.93838052 31.61956522 24.625 31.59375 C26.49300052 31.592039 28.36100344 31.59210447 30.22900391 31.59387207 C34.14313745 31.59221846 38.05669852 31.57351297 41.97070312 31.54199219 C46.98801076 31.5023144 52.00456843 31.49794664 57.02200317 31.50545502 C60.87905753 31.5085245 64.73594325 31.49640498 68.59295654 31.47932434 C70.44292137 31.47229276 72.29290531 31.46917 74.1428833 31.47001648 C76.72841941 31.46821882 79.31305679 31.44684025 81.8984375 31.41992188 C83.04563263 31.42431778 83.04563263 31.42431778 84.21600342 31.42880249 C87.39326331 31.3777609 89.65253891 31.19188999 92.45947266 29.64172363 C94.4388667 27.53230442 94.6936255 25.83396408 95 23 C95.33 23 95.66 23 96 23 C96.50341475 28.2858549 95.26910671 30.86554151 92 35 C88.83754203 36.58122899 85.43190032 36.17411642 81.95776367 36.19287109 C81.12669601 36.20104858 80.29562836 36.20922607 79.43937683 36.21765137 C76.68224818 36.24251468 73.92517103 36.25902345 71.16796875 36.2734375 C70.22724329 36.27876118 69.28651783 36.28408485 68.31728554 36.28956985 C63.33840372 36.31630508 58.35954701 36.33567908 53.38061523 36.35009766 C48.23546792 36.3667496 43.09096063 36.41153082 37.94605541 36.4624691 C33.99208329 36.49610863 30.03826372 36.50767145 26.08416176 36.51332474 C24.18751444 36.52004597 22.29087745 36.53529066 20.39436913 36.55921555 C17.73918723 36.59080091 15.08574001 36.59091422 12.43041992 36.58349609 C11.64737488 36.59990143 10.86432983 36.61630676 10.05755615 36.63320923 C6.05601746 36.58746058 4.20298237 36.15733402 1.00283813 33.67686462 C-1.64602836 30.13656005 -1.50378737 28.10925629 -1.26953125 23.73046875 C-1.24026047 23.04946609 -1.21098969 22.36846344 -1.18083191 21.66682434 C-1.08234564 19.50504521 -0.94801043 17.34724254 -0.8125 15.1875 C-0.73915687 13.71691362 -0.66816788 12.24620783 -0.59960938 10.77539062 C-0.42697202 7.18180851 -0.22215347 3.59090017 0 0 Z " fill="#C4241E" transform="translate(48,111)"/>
<path d="M0 0 C10.60507633 -0.06952305 21.21009841 -0.12282304 31.81535625 -0.15543652 C36.73986043 -0.17108968 41.66420863 -0.19232168 46.58862305 -0.22631836 C51.34132736 -0.25892412 56.09388169 -0.27685564 60.84668922 -0.28463173 C62.65957818 -0.29017304 64.47245897 -0.30099388 66.28528404 -0.31719017 C68.82537932 -0.3389807 71.36485553 -0.34196626 73.9050293 -0.34057617 C74.65381348 -0.351362 75.40259766 -0.36214783 76.17407227 -0.3732605 C81.69527334 -0.340585 84.91837422 0.92288967 88.80078125 4.796875 C90.40297189 7.74031319 90.29604002 9.92143933 90.1875 13.25 C90.14689453 14.86648437 90.14689453 14.86648437 90.10546875 16.515625 C90.07066406 17.33546875 90.03585938 18.1553125 90 19 C89.505 18.01 89.505 18.01 89 17 C88.34 17 87.68 17 87 17 C86.54427083 15.01432292 86.08854167 13.02864583 85.6328125 11.04296875 C85.01992277 8.72257026 85.01992277 8.72257026 83 6 C80.57478506 5.41810734 80.57478506 5.41810734 77.875 5.3125 C76.26625 5.209375 74.6575 5.10625 73 5 C73 8.3 73 11.6 73 15 C72.67 15 72.34 15 72 15 C72 11.7 72 8.4 72 5 C48.9 5 25.8 5 2 5 C1.34 3.35 0.68 1.7 0 0 Z " fill="#D65649" transform="translate(53,40)"/>
<path d="M0 0 C4.62 0 9.24 0 14 0 C14.33 3.3 14.66 6.6 15 10 C18.96 10.33 22.92 10.66 27 11 C27 11.33 27 11.66 27 12 C23.04 12 19.08 12 15 12 C15 13.98 15 15.96 15 18 C14.2575 17.690625 13.515 17.38125 12.75 17.0625 C11.38875 16.5365625 11.38875 16.5365625 10 16 C9.319375 15.731875 8.63875 15.46375 7.9375 15.1875 C5.84311318 14.77703412 5.84311318 14.77703412 3.875 16.4375 C3.25625 16.953125 2.6375 17.46875 2 18 C1.34 18 0.68 18 0 18 C0 12.06 0 6.12 0 0 Z " fill="#F44A32" transform="translate(111,45)"/>
<path d="M0 0 C1.51223648 0.00666183 1.51223648 0.00666183 3.05502319 0.01345825 C4.19605499 0.01360931 5.33708679 0.01376038 6.51269531 0.01391602 C8.36741959 0.02939987 8.36741959 0.02939987 10.25961304 0.04519653 C12.15313004 0.04944138 12.15313004 0.04944138 14.0848999 0.05377197 C17.44201998 0.06308772 20.79886965 0.08106068 24.15591431 0.10317993 C27.58108176 0.12363353 31.00627713 0.13277264 34.43148804 0.14285278 C41.15291724 0.16494445 47.87421827 0.19844527 54.59555054 0.24050903 C54.59555054 1.56050903 54.59555054 2.88050903 54.59555054 4.24050903 C35.45555054 4.24050903 16.31555054 4.24050903 -3.40444946 4.24050903 C-3.73444946 5.56050903 -4.06444946 6.88050903 -4.40444946 8.24050903 C-4.52944946 5.36550903 -4.52944946 5.36550903 -4.40444946 2.24050903 C-2.40444946 0.24050903 -2.40444946 0.24050903 0 0 Z " fill="#FDDECE" transform="translate(55.404449462890625,44.759490966796875)"/>
<path d="M0 0 C7.51953125 -0.390625 7.51953125 -0.390625 10 0 C12.76367501 2.71602544 12.98860002 3.77200032 13.1875 7.75 C13.125625 8.8225 13.06375 9.895 13 11 C8.71 11 4.42 11 0 11 C0 7.37 0 3.74 0 0 Z " fill="#FEF6EB" transform="translate(126,45)"/>
<path d="M0 0 C2.36655178 1.65658625 3.57041593 2.5471347 5 5 C5.44572896 9.03253609 5.29001875 12.95907202 5 17 C4.67 16.34 4.34 15.68 4 15 C3.34 15 2.68 15 2 15 C1.7525 13.7625 1.505 12.525 1.25 11.25 C0.26720241 7.44670797 -0.60314882 5.23477051 -4 3 C-6.70360304 2.39402001 -9.21785963 2.18547602 -12 2 C-12 1.67 -12 1.34 -12 1 C-10.95199219 1.01740234 -10.95199219 1.01740234 -9.8828125 1.03515625 C-8.97273437 1.04417969 -8.06265625 1.05320313 -7.125 1.0625 C-5.76761719 1.07990234 -5.76761719 1.07990234 -4.3828125 1.09765625 C-1.9831415 1.16249257 -1.9831415 1.16249257 0 0 Z " fill="#D23426" transform="translate(138,42)"/>
<path d="M0 0 C1.6026782 -0.10824843 3.20745748 -0.18570645 4.8125 -0.25 C5.70582031 -0.29640625 6.59914062 -0.3428125 7.51953125 -0.390625 C10 0 10 0 11.8125 1.78125 C13.47882435 4.8946455 13.20012331 7.53119593 13 11 C8.71 11 4.42 11 0 11 C0 10.67 0 10.34 0 10 C3.96 10 7.92 10 12 10 C12 8.35 12 6.7 12 5 C8.04 4.67 4.08 4.34 0 4 C0 2.68 0 1.36 0 0 Z " fill="#FBD8CA" transform="translate(126,45)"/>
<path d="M0 0 C3.45195767 1.4258086 5.1014256 3.09746334 7.25 6.125 C7.77078125 6.84945312 8.2915625 7.57390625 8.828125 8.3203125 C9.40820312 9.15175781 9.40820312 9.15175781 10 10 C8.68 10.33 7.36 10.66 6 11 C4.80040625 9.74057614 3.61560557 8.46704714 2.4375 7.1875 C1.44556641 6.12595703 1.44556641 6.12595703 0.43359375 5.04296875 C-0.03949219 4.36878906 -0.51257813 3.69460937 -1 3 C-0.67 2.01 -0.34 1.02 0 0 Z " fill="#FDE7E1" transform="translate(69,75)"/>
<path d="M0 0 C7.41834582 -0.09377123 14.66236293 -0.17402193 22 1 C22 1.33 22 1.66 22 2 C19.36 2 16.72 2 14 2 C14 5.3 14 8.6 14 12 C13.67 12 13.34 12 13 12 C13 8.7 13 5.4 13 2 C8.71 1.67 4.42 1.34 0 1 C0 0.67 0 0.34 0 0 Z " fill="#DE5B4F" transform="translate(112,43)"/>
<path d="M0 0 C4.41510774 0.48713098 6.30446645 1.85053197 9.3125 5.0625 C10.00988281 5.79597656 10.70726563 6.52945313 11.42578125 7.28515625 C11.94527344 7.85105469 12.46476562 8.41695312 13 9 C9.02348017 9 7.85083826 7.55718178 4.8125 5.0625 C3.91144531 4.33160156 3.01039062 3.60070312 2.08203125 2.84765625 C1.39496094 2.23792969 0.70789063 1.62820312 0 1 C0 0.67 0 0.34 0 0 Z " fill="#FA602C" transform="translate(73,71)"/>
<path d="M0 0 C0.66 0.33 1.32 0.66 2 1 C2 1.99 2 2.98 2 4 C0.1875 5.75 0.1875 5.75 -2 7 C-2.99 6.67 -3.98 6.34 -5 6 C-3.35 4.02 -1.7 2.04 0 0 Z " fill="#F8572F" transform="translate(98,103)"/>
<path d="M0 0 C2.5 1.8125 2.5 1.8125 5 4 C5 4.99 5 5.98 5 7 C3.0625 6.3125 3.0625 6.3125 1 5 C0.25 2.375 0.25 2.375 0 0 Z " fill="#FA6C45" transform="translate(76,78)"/>
</svg>
